Coordinates
version=1
nRows=25
nColumns=23
inDegrees=yes

Units are S.I. units (second, meters, Newtons, ...)
If the header above contains a line with 'inDegrees', this indicates whether rotational values are in degrees (yes) or radians (no).

endheader
time	pelvis_tilt	pelvis_list	pelvis_rotation	pelvis_tx	pelvis_ty	pelvis_tz	hip_flexion_r	hip_adduction_r	hip_rotation_r	knee_angle_r	knee_angle_r_beta	ankle_angle_r	subtalar_angle_r	mtp_angle_r	hip_flexion_l	hip_adduction_l	hip_rotation_l	knee_angle_l	knee_angle_l_beta	ankle_angle_l	subtalar_angle_l	mtp_angle_l
     15.00000000	     -9.19560646	     -6.62197798	     -9.68852215	      2.12943141	      0.95599243	      1.06752582	     39.79509205	     16.28777422	      5.45843186	     43.78234857	      0.76414614	     10.27683557	     -4.34915732	      0.00000000	     10.52350726	     -6.26614202	     -8.35614597	     96.61852498	      1.68631138	    -13.40212959	    -21.17053232	      0.00000000
     15.00666667	     -8.99231208	     -7.35925473	    -10.38193559	      2.12739265	      0.95246587	      1.06809286	     39.11193823	     17.44279935	      5.80088865	     45.80567009	      0.79945976	     11.99283876	     -4.58417513	      0.00000000	     12.22096487	     -7.71437618	     -8.63100281	     99.65739260	      1.73934962	    -12.82834231	    -21.93517734	      0.00000000
     15.01333333	     -9.46307033	     -7.42208805	    -11.19942843	      2.12453598	      0.94828846	      1.06879565	     39.17230845	     18.17642804	      6.60018974	     47.85305746	      0.83519341	     13.89203794	     -4.78001863	      0.00000000	     14.94739375	     -8.52267733	     -8.85070632	    102.58594573	      1.79046252	    -12.04783725	    -22.33891404	      0.00000000
     15.02000000	     -9.21993288	     -7.94648895	    -11.69806346	      2.12223624	      0.94631487	      1.06894373	     37.99195454	     19.00133148	      7.20318616	     49.15818203	      0.85797213	     15.88135738	     -4.75954321	      0.00000000	     16.85322972	     -9.61447500	     -8.63444155	    105.08903875	      1.83414973	    -11.47035472	    -22.86566126	      0.00000000
     15.02666667	     -9.57898936	     -7.88760413	    -12.24011483	      2.11949128	      0.94385251	      1.06917127	     37.48680012	     19.29965150	      7.86483083	     50.45442020	      0.88059575	     17.80717200	     -4.40019165	      0.00000000	     19.66891663	    -10.18611370	     -8.39309126	    107.41981975	      1.87482954	    -10.68923230	    -22.84413958	      0.00000000
     15.03333333	     -9.21456352	     -8.10142343	    -12.44953636	      2.11739767	      0.94362784	      1.06890047	     35.76175440	     19.56827571	      8.57678009	     51.03385714	      0.89070884	     19.47854773	     -4.30020572	      0.00000000	     21.66144367	    -10.71119557	     -7.77398412	    109.23471832	      1.90650549	    -10.14285806	    -23.12544052	      0.00000000
     15.04000000	     -9.33168776	     -8.22007029	    -12.56961564	      2.11544047	      0.94328347	      1.06858836	     34.46242091	     19.59487305	      8.91434910	     51.38390021	      0.89681824	     21.36549902	     -3.52743293	      0.00000000	     24.28761314	    -11.25719210	     -6.99087634	    110.86232233	      1.93491254	     -9.22796139	    -22.61560110	      0.00000000
     15.04666667	     -9.12729613	     -8.20609861	    -12.51874335	      2.11391289	      0.94422106	      1.06813808	     32.60453328	     19.37714447	      9.42220089	     51.35978913	      0.89639742	     22.97961319	     -3.08510844	      0.00000000	     26.54649820	    -11.49191719	     -6.16852948	    112.00000378	      1.95476883	     -8.58786214	    -22.43109690	      0.00000000
     15.05333333	     -8.91903049	     -8.22688691	    -12.33340744	      2.11286227	      0.94586109	      1.06731595	     30.55920425	     18.93871845	      9.59076557	     50.94422354	      0.88914444	     24.41961791	     -2.16647476	      0.00000000	     28.77639843	    -11.54972893	     -5.16241841	    112.80545771	      1.96882665	     -7.74220038	    -21.83332262	      0.00000000
     15.06000000	     -8.73427537	     -8.01792528	    -12.19988866	      2.11206751	      0.94811967	      1.06666437	     28.38118443	     18.37927157	     10.14156405	     50.24028156	      0.87685833	     25.63968993	     -1.65911812	      0.00000000	     30.93267374	    -11.41632155	     -4.40127174	    113.18801990	      1.97550362	     -7.06880101	    -21.51566373	      0.00000000
     15.06666667	     -8.31231477	     -8.06835298	    -11.75432552	      2.11209569	      0.95128868	      1.06561442	     25.74682422	     17.70018037	     10.06397461	     49.08359563	      0.85667035	     26.59806660	     -0.53034760	      0.00000000	     32.72493925	    -11.32566268	     -3.34677238	    113.25741225	      1.97671475	     -6.06196480	    -20.57393400	      0.00000000
     15.07333333	     -7.75490385	     -8.02574204	    -11.38996866	      2.11257059	      0.95527301	      1.06462004	     22.77322582	     16.93522999	     10.17572435	     47.56500128	      0.83016588	     27.28556560	      0.45806220	      0.00000000	     34.16497784	    -11.14954786	     -2.55234300	    112.91045167	      1.97065914	     -5.17294924	    -19.80608134	      0.00000000
     15.08000000	     -8.02102613	     -7.41907585	    -11.55068845	      2.11248614	      0.95836874	      1.06431885	     20.78147247	     16.03656850	     10.97438941	     46.15558398	      0.80556691	     27.71873178	      0.89207696	      0.00000000	     36.40391533	    -10.80519539	     -2.39892041	    112.30016852	      1.96000769	     -4.64687033	    -19.64457532	      0.00000000
     15.08666667	     -6.77236619	     -7.63703302	    -10.79669074	      2.11437807	      0.96431467	      1.06280616	     16.61181342	     15.21403280	     10.78237870	     43.69291890	      0.76258529	     27.86672123	      2.03678293	      0.00000000	     36.72070122	    -10.51024700	     -1.45834630	    111.26725110	      1.94197988	     -3.37189663	    -18.48666200	      0.00000000
     15.09333333	     -6.49087617	     -7.26552194	    -10.51450518	      2.11569574	      0.96897803	      1.06187007	     13.68808044	     14.14962428	     10.95877404	     41.47087793	      0.72380336	     27.80244159	      2.91432015	      0.00000000	     38.02810896	    -10.00233442	     -1.08748027	    110.05059208	      1.92074518	     -2.34618372	    -17.81823559	      0.00000000
     15.10000000	     -6.22879376	     -6.76140818	    -10.24391386	      2.11727251	      0.97384960	      1.06095102	     10.76523229	     12.92581314	     11.04763598	     39.09750629	      0.68238021	     27.50308936	      3.84980071	      0.00000000	     39.20091459	     -9.34562622	     -0.87007541	    108.55539975	      1.89464915	     -1.42214918	    -17.26004287	      0.00000000
     15.10666667	     -6.14272810	     -6.11747103	     -9.93031124	      2.11904997	      0.97861785	      1.05995002	      8.06670947	     11.55180391	     10.90015657	     36.64207222	      0.63952481	     26.84759106	      4.71023136	      0.00000000	     40.45269828	     -8.49928497	     -0.71658485	    106.83427815	      1.86460991	     -0.48327902	    -16.73386180	      0.00000000
     15.11333333	     -5.91207029	     -5.51612932	     -9.62468928	      2.12110407	      0.98373518	      1.05908914	      5.16096702	     10.19649494	     10.58875884	     34.00776553	      0.59354748	     25.76620028	      5.82774595	      0.00000000	     41.35651514	     -7.74568811	     -0.66470086	    104.87675103	      1.83044461	      0.39572668	    -16.37886366	      0.00000000
     15.12000000	     -5.86633272	     -4.81882873	     -9.26704526	      2.12324910	      0.98862454	      1.05824553	      2.51523270	      8.80288121	     10.05178944	     31.36095628	      0.54735194	     24.14798031	      6.68873258	      0.00000000	     42.36425627	     -6.85952179	     -0.62841872	    102.73543529	      1.79307160	      1.23502554	    -16.10757414	      0.00000000
     15.12666667	     -5.85279242	     -4.09101301	     -8.81097518	      2.12553333	      0.99344697	      1.05736880	     -0.05499741	      7.44178980	      9.30652975	     28.70029948	      0.50091472	     22.07546993	      7.28821118	      0.00000000	     43.29844311	     -5.89280602	     -0.57890787	    100.41116422	      1.75250542	      2.00261458	    -15.89773841	      0.00000000
     15.13333333	     -5.94223622	     -3.36430123	     -8.31557124	      2.12783404	      0.99805832	      1.05659150	     -2.45126148	      6.18430068	      8.39298542	     26.08916850	      0.45534189	     19.52120899	      7.66194736	      0.00000000	     44.23059685	     -4.92703457	     -0.52830445	     97.93019399	      1.70920432	      2.68618836	    -15.84836860	      0.00000000
     15.14000000	     -6.01395512	     -2.66167761	     -7.82622357	      2.13009182	      1.00258816	      1.05599128	     -4.80014580	      5.06416300	      7.47312777	     23.54826152	      0.41099470	     16.53675300	      7.69682309	      0.00000000	     45.01962911	     -4.03486591	     -0.53282195	     95.28758389	      1.66308208	      3.29455125	    -15.84824247	      0.00000000
     15.14666667	     -6.36090316	     -1.98695217	     -7.22233847	      2.13229106	      1.00651858	      1.05527178	     -6.70822266	      4.09608056	      6.24692607	     21.24650125	      0.37082140	     13.28121858	      7.59506039	      0.00000000	     46.03671019	     -3.09146275	     -0.42320345	     92.53842521	      1.61510020	      3.80370397	    -16.02827018	      0.00000000
     15.15333333	     -6.62160476	     -1.40283710	     -6.67749743	      2.13441708	      1.01040484	      1.05479344	     -8.60472373	      3.31179666	      5.04487753	     19.10382570	      0.33342466	      9.73076887	      7.22716905	      0.00000000	     46.80805850	     -2.32811111	     -0.38786044	     89.63575081	      1.56443898	      4.24277910	    -16.26560926	      0.00000000
     15.16000000	     -6.79713119	     -0.97986259	     -6.26373262	      2.13635323	      1.01429196	      1.05460502	    -10.51785928	      2.81501547	      4.28523009	     17.05512863	      0.29766815	      5.87669654	      6.15857707	      0.00000000	     47.34679411	     -1.87417835	     -0.43230548	     86.60779785	      1.51159123	      4.64654574	    -16.51478055	      0.00000000
